<svg width="7" height="13" viewBox="0 0 7 13" fill="none" xmlns="http://www.w3.org/2000/svg">
<path d="M4.27832 10.9492V12.3267H3.35156V10.9873C2.49251 10.9831 1.69271 10.7884 0.952148 10.4033V8.64502C1.19759 8.84391 1.56364 9.02799 2.05029 9.19727C2.53695 9.36654 2.9707 9.46387 3.35156 9.48926V7.17871C2.36133 6.81055 1.68424 6.41276 1.32031 5.98535C0.960612 5.55371 0.780762 5.02897 0.780762 4.41113C0.780762 3.74674 1.01562 3.1818 1.48535 2.71631C1.95508 2.24658 2.57715 1.97363 3.35156 1.89746V0.716797H4.27832V1.87207C5.17122 1.91439 5.83773 2.05827 6.27783 2.30371V4.01758C5.68538 3.65788 5.01888 3.43783 4.27832 3.35742V5.76318C5.20508 6.09749 5.86947 6.48047 6.27148 6.91211C6.6735 7.33952 6.87451 7.85791 6.87451 8.46729C6.87451 9.16976 6.65023 9.73682 6.20166 10.1685C5.75309 10.5959 5.11198 10.8561 4.27832 10.9492ZM3.35156 5.39502V3.38281C2.76335 3.48861 2.46924 3.79541 2.46924 4.30322C2.46924 4.7391 2.76335 5.10303 3.35156 5.39502ZM4.27832 7.54053V9.46387C4.88346 9.37077 5.18604 9.0682 5.18604 8.55615C5.18604 8.14144 4.88346 7.8029 4.27832 7.54053Z" fill="#8A94A6"/>
</svg>
