<svg width="16" height="16" viewBox="0 0 16 16" fill="none" xmlns="http://www.w3.org/2000/svg">
<path fill-rule="evenodd" clip-rule="evenodd" d="M14.923 2.3692C9.99994 4.95381 10.5538 -0.338495 4.61533 1.72304C4.43071 1.78458 4.30764 1.9692 4.30764 2.15381V9.32304C4.30764 9.53843 4.52302 9.69228 4.70764 9.59997C10.6153 7.63074 9.99994 13.0461 15.1384 10.1538C15.2923 10.0615 15.3846 9.90766 15.3846 9.75381V2.61535C15.3846 2.39997 15.1384 2.24612 14.923 2.3692ZM3.07687 1.07689C3.07687 0.830741 2.86148 0.615356 2.61533 0.615356H1.69225C1.4461 0.615356 1.23071 0.830741 1.23071 1.07689V14.923C1.23071 15.1692 1.4461 15.3846 1.69225 15.3846H2.61533C2.86148 15.3846 3.07687 15.1692 3.07687 14.923V1.07689Z" fill="#4BCA8D"/>
</svg>
