<svg width="16" height="12" viewBox="0 0 16 12" fill="none" xmlns="http://www.w3.org/2000/svg">
<path fill-rule="evenodd" clip-rule="evenodd" d="M10.7692 0.576904C10.2462 0.576904 9.75385 0.638443 9.29231 0.792289C9.84615 1.25383 10.3385 1.80767 10.7385 2.42306H10.7692C12.6462 2.42306 14.1538 3.93075 14.1538 5.80767C14.1538 7.6846 12.6462 9.19229 10.7692 9.19229C10.3077 9.19229 9.84615 9.09998 9.44615 8.91537C9.69231 8.5769 9.90769 8.20767 10.0615 7.83844C10.1231 7.6846 10.1846 7.56152 10.2154 7.40767C10.3692 6.91537 10.4615 6.36152 10.4615 5.80767C10.4615 2.91537 8.12308 0.576904 5.23077 0.576904C2.33846 0.576904 0 2.91537 0 5.80767C0 8.69998 2.33846 11.0384 5.23077 11.0384C5.75385 11.0384 6.24615 10.9769 6.70769 10.8231C6.15385 10.3615 5.66154 9.80767 5.26154 9.19229H5.23077C3.35385 9.19229 1.84615 7.6846 1.84615 5.80767C1.84615 3.93075 3.35385 2.42306 5.23077 2.42306C5.69231 2.42306 6.15385 2.51537 6.58462 2.69998C5.93846 3.56152 5.53846 4.63844 5.53846 5.80767C5.53846 8.69998 7.87692 11.0384 10.7692 11.0384C13.6615 11.0384 16 8.69998 16 5.80767C16 2.91537 13.6615 0.576904 10.7692 0.576904Z" fill="#1C8EFF"/>
</svg>
